<?xml version="1.0" encoding="UTF-8" standalone="no"?>
<!DOCTYPE svg PUBLIC "-//W3C//DTD SVG 1.1//EN"
 "http://www.w3.org/Graphics/SVG/1.1/DTD/svg11.dtd">
<!-- Generated by graphviz version 5.0.0 (0)
 -->
<!-- Title: conversion Pages: 1 -->
<svg width="99pt" height="188pt"
 viewBox="0.00 0.00 98.84 188.00" xmlns="http://www.w3.org/2000/svg" xmlns:xlink="http://www.w3.org/1999/xlink">
<g id="graph0" class="graph" transform="scale(1 1) rotate(0) translate(4 184)">
<title>conversion</title>
<!-- kana -->
<g id="node1" class="node">
<title>kana</title>
<ellipse fill="none" stroke="black" cx="61.6" cy="-162" rx="27.1" ry="18"/>
<text text-anchor="middle" x="61.6" y="-158.3" font-family="Times,serif" font-size="14.00">kana</text>
</g>
<!-- kanji -->
<g id="node2" class="node">
<title>kanji</title>
<ellipse fill="none" stroke="black" cx="28.6" cy="-90" rx="28.7" ry="18"/>
<text text-anchor="middle" x="28.6" y="-86.3" font-family="Times,serif" font-size="14.00">kanji</text>
</g>
<!-- kana&#45;&gt;kanji -->
<g id="edge1" class="edge">
<title>kana&#45;&gt;kanji</title>
<path fill="none" stroke="black" d="M48.76,-145.81C43.87,-137.57 38.66,-127.15 34.57,-117.62"/>
<polygon fill="black" stroke="black" points="37.74,-116.11 30.77,-108.13 31.24,-118.71 37.74,-116.11"/>
</g>
<!-- roma -->
<g id="node3" class="node">
<title>roma</title>
<ellipse fill="none" stroke="black" cx="61.6" cy="-18" rx="29.5" ry="18"/>
<text text-anchor="middle" x="61.6" y="-14.3" font-family="Times,serif" font-size="14.00">roma</text>
</g>
<!-- kana&#45;&gt;roma -->
<g id="edge2" class="edge">
<title>kana&#45;&gt;roma</title>
<path fill="none" stroke="black" d="M55.81,-144.32C55.71,-133.9 57.02,-120.19 57.6,-108 58.35,-92.02 58.35,-87.98 57.6,-72 57.19,-63.43 56.43,-54.11 56.04,-45.71"/>
<polygon fill="black" stroke="black" points="59.54,-45.6 55.81,-35.68 52.54,-45.76 59.54,-45.6"/>
</g>
<!-- kanji&#45;&gt;kana -->
<g id="edge6" class="edge">
<title>kanji&#45;&gt;kana</title>
<path fill="none" stroke="black" d="M41.44,-106.2C46.3,-114.4 51.48,-124.75 55.56,-134.24"/>
<polygon fill="black" stroke="black" points="52.38,-135.72 59.36,-143.7 58.88,-133.11 52.38,-135.72"/>
</g>
<!-- kanji&#45;&gt;roma -->
<g id="edge5" class="edge">
<title>kanji&#45;&gt;roma</title>
<path fill="none" stroke="black" d="M30.84,-71.7C34.01,-63.07 38.82,-52.5 43.79,-43.1"/>
<polygon fill="black" stroke="black" points="46.93,-44.64 48.75,-34.2 40.82,-41.23 46.93,-44.64"/>
</g>
<!-- roma&#45;&gt;kana -->
<g id="edge3" class="edge">
<title>roma&#45;&gt;kana</title>
<path fill="none" stroke="black" d="M71.23,-35.21C73.67,-45.69 75.02,-59.63 75.6,-72 76.35,-87.98 76.35,-92.02 75.6,-108 75.18,-116.79 74.39,-126.38 73.08,-134.96"/>
<polygon fill="black" stroke="black" points="69.64,-134.32 71.23,-144.79 76.52,-135.61 69.64,-134.32"/>
</g>
<!-- roma&#45;&gt;kanji -->
<g id="edge4" class="edge">
<title>roma&#45;&gt;kanji</title>
<path fill="none" stroke="black" d="M59.42,-36.13C56.25,-44.77 51.42,-55.4 46.43,-64.86"/>
<polygon fill="black" stroke="black" points="43.25,-63.37 41.44,-73.81 49.37,-66.78 43.25,-63.37"/>
</g>
</g>
</svg>
